<svg width="95" height="42" viewBox="0 0 95 42" fill="none" xmlns="http://www.w3.org/2000/svg">
<path d="M52 23.1682H54.7867V25.9283H52V23.1682ZM52 27.8718H54.7867V41.6407H52V27.8718Z" fill="#221C35"/>
<path d="M57.8631 23.3703H60.6499V33.6328H60.7048L64.9124 27.8718L68.1466 27.8485L63.9626 33.1742L68.6882 41.6407H65.6424L62.2277 35.3743L60.6499 37.2636V41.6407H57.8631V23.3703Z" fill="#221C35"/>
<path d="M77.1899 40.0314H77.1114C76.7512 40.6468 76.2299 41.1543 75.6026 41.5005C74.9754 41.8467 74.2654 42.0187 73.5475 41.9984C71.483 41.9984 70.0856 41.0576 70.0856 37.4969V27.872H72.8724V37.7535C72.8724 39.3084 73.571 39.7981 74.7642 39.7981C75.0735 39.8125 75.3822 39.7614 75.6699 39.648C75.9574 39.5347 76.2174 39.3619 76.4322 39.1411C76.647 38.9202 76.8116 38.6566 76.9152 38.3676C77.0188 38.0788 77.059 37.7713 77.0329 37.4658V27.872H79.8274V41.6407H77.1899V40.0314Z" fill="#221C35"/>
<path d="M59.6448 16.5832H59.5978C59.3949 17.2143 58.9834 17.7595 58.4293 18.1303C57.8754 18.5013 57.2114 18.6766 56.5446 18.6279C53.295 18.6279 52 15.9379 52 11.2032C52 5.09237 54.1742 4.14387 56.2855 4.14387C56.9494 4.11348 57.6065 4.28586 58.168 4.63769C58.7296 4.98951 59.1685 5.50378 59.4252 6.11084H59.4801V0H62.29V18.2702H59.6448V16.5832ZM57.1175 6.34407C55.5477 6.34407 54.9433 7.62688 54.9433 11.3354C54.9433 14.4452 55.3593 16.4277 57.2981 16.4277C59.2368 16.4277 59.6528 14.4841 59.6528 11.5375C59.6528 8.24108 59.2682 6.34407 57.1253 6.34407" fill="#221C35"/>
<path d="M74.3464 15.4012C74.3464 15.9142 74.6604 16.3729 75.0764 16.3729C75.2338 16.3788 75.391 16.3551 75.5394 16.303V18.0912C75.1114 18.2997 74.6427 18.4138 74.1659 18.4254C72.9257 18.4254 71.8975 17.9357 71.8113 16.6062H71.7563C71.4472 17.2455 70.953 17.7792 70.3365 18.1393C69.72 18.4992 69.0093 18.6693 68.2949 18.6275C66.0736 18.6275 64.6765 17.3992 64.6765 14.7403C64.6765 11.6693 66.0187 11.0318 67.9103 10.4176L70.0766 9.82673C71.0892 9.54684 71.7091 9.26695 71.7091 8.06189C71.7091 6.85682 71.2776 6.03272 69.8019 6.03272C67.9417 6.03272 67.6827 7.33884 67.6827 8.67608H65.0455C65.0455 5.75283 66.262 4.14349 69.9354 4.14349C72.3842 4.14349 74.3464 5.09198 74.3464 7.51766V15.4012ZM71.7091 11.0007C70.9793 11.5682 69.4329 11.8948 68.5696 12.2835C68.1801 12.5022 67.8645 12.8298 67.662 13.2253C67.4596 13.6208 67.3794 14.0666 67.4316 14.507C67.4316 15.6576 67.9966 16.5829 69.1583 16.5829C70.8379 16.5829 71.6699 15.3234 71.6699 13.302L71.7091 11.0007Z" fill="#221C35"/>
<path d="M76.2067 4.50137H78.1219V0.614063H80.9083V4.50137H83.1846V6.54609H80.9083V14.7639C80.9083 15.8368 81.2223 16.2256 82.1799 16.2256C82.5164 16.2288 82.8526 16.2028 83.1846 16.1477V18.1924C82.4489 18.3621 81.6949 18.4405 80.9397 18.4257C79.0481 18.4257 78.1219 17.9125 78.1219 15.0982V6.54609H76.2067V4.50137Z" fill="#221C35"/>
<path d="M93.6699 15.2809C93.6699 15.7941 93.9839 16.2527 94.3999 16.2527C94.5573 16.2586 94.7144 16.2348 94.8629 16.1828V17.9711C94.435 18.1796 93.9662 18.2937 93.4894 18.3053C92.2492 18.3053 91.221 17.8154 91.1346 16.486H91.0798C90.7707 17.1254 90.2764 17.6591 89.6601 18.0191C89.0435 18.3791 88.3328 18.5492 87.6184 18.5074C85.3972 18.5074 84 17.2791 84 14.6201C84 11.5492 85.3422 10.9116 87.2338 10.2974L89.4001 9.70657C90.4125 9.42668 91.0327 9.14679 91.0327 7.94173C91.0327 6.73666 90.5931 5.88923 89.1175 5.88923C87.2573 5.88923 86.9983 7.19537 86.9983 8.53261H84.361C84.361 5.60934 85.5776 4 89.251 4C91.6998 4 93.6621 4.94851 93.6621 7.37419L93.6699 15.2809ZM91.0404 10.8805C90.3106 11.4481 88.7643 11.7746 87.901 12.1633C87.5115 12.382 87.1958 12.7096 86.9933 13.1051C86.791 13.5006 86.7107 13.9465 86.7629 14.3869C86.7629 15.5375 87.328 16.4627 88.4896 16.4627C90.1692 16.4627 91.0012 15.2032 91.0012 13.1818L91.0404 10.8805Z" fill="#221C35"/>
<path fill-rule="evenodd" clip-rule="evenodd" d="M9.33302 3.54082C12.7865 1.23331 16.8466 0.0016861 21 0.0016861C26.5695 0.0016861 31.911 2.21417 35.8492 6.15244C39.7875 10.0907 42 15.4321 42 21.0016C42 25.155 40.7684 29.2152 38.4608 32.6686C36.1533 36.122 32.8736 38.8137 29.0364 40.4032C25.1991 41.9925 20.9767 42.4085 16.9031 41.5982C12.8295 40.7878 9.08766 38.7877 6.15077 35.8508C3.21386 32.914 1.21381 29.1722 0.403519 25.0986C-0.406771 21.0249 0.00909927 16.8026 1.59853 12.9653C3.18798 9.12807 5.8796 5.84833 9.33302 3.54082ZM21.8866 26.8817H32.441V25.2483H21.8866V26.8817ZM30.8156 15.0672C30.4266 12.5239 31.15 11.575 31.15 11.575L32.5344 9.87946L30.9788 10.315C30.6083 9.71591 30.0453 9.26033 29.382 9.02284C28.7187 8.78534 27.9945 8.77998 27.3278 9.00763C26.6611 9.23527 26.0914 9.68246 25.712 10.276C25.3325 10.8696 25.1658 11.5743 25.2389 12.275L8.35333 33.0961C8.35333 33.0961 8.42333 33.3994 8.68 33.2672C8.94888 33.1201 9.62149 32.4402 11.6411 30.3986C12.7177 29.3103 14.1771 27.835 16.1622 25.8473C18.0911 23.9183 21.3033 24.0816 21.3033 24.0816H24.5933C29.0266 24.0816 31.5311 19.835 30.8156 15.0672ZM27.8854 10.6286C28.0233 10.5381 28.1849 10.4906 28.3499 10.4922C28.5692 10.4942 28.7789 10.5828 28.9332 10.7387C29.0877 10.8945 29.1742 11.105 29.1742 11.3244C29.1742 11.4893 29.1252 11.6505 29.0334 11.7875C28.9417 11.9246 28.8112 12.0312 28.6587 12.094C28.5061 12.1567 28.3385 12.1727 28.1769 12.14C28.0151 12.1073 27.8669 12.0272 27.7508 11.9101C27.6348 11.7929 27.5562 11.6439 27.525 11.4819C27.4937 11.32 27.5113 11.1524 27.5754 11.0005C27.6397 10.8486 27.7476 10.7191 27.8854 10.6286Z" fill="#221C35"/>
</svg>
